<svg id="visual" viewBox="0 0 900 450" width="900" height="450" xmlns="http://www.w3.org/2000/svg" xmlns:xlink="http://www.w3.org/1999/xlink" version="1.1"><rect x="0" y="0" width="900" height="450" fill="#f9f9f9"></rect><path d="M0 267L21.5 272.2C43 277.3 86 287.7 128.8 297.7C171.7 307.7 214.3 317.3 257.2 319.2C300 321 343 315 385.8 308.2C428.7 301.3 471.3 293.7 514.2 289.7C557 285.7 600 285.3 642.8 288.3C685.7 291.3 728.3 297.7 771.2 301.7C814 305.7 857 307.3 878.5 308.2L900 309L900 451L878.5 451C857 451 814 451 771.2 451C728.3 451 685.7 451 642.8 451C600 451 557 451 514.2 451C471.3 451 428.7 451 385.8 451C343 451 300 451 257.2 451C214.3 451 171.7 451 128.8 451C86 451 43 451 21.5 451L0 451Z" fill="#ffecb5"></path><path d="M0 321L21.5 320.8C43 320.7 86 320.3 128.8 321.8C171.7 323.3 214.3 326.7 257.2 327.8C300 329 343 328 385.8 324C428.7 320 471.3 313 514.2 318.2C557 323.3 600 340.7 642.8 346.5C685.7 352.3 728.3 346.7 771.2 336.7C814 326.7 857 312.3 878.5 305.2L900 298L900 451L878.5 451C857 451 814 451 771.2 451C728.3 451 685.7 451 642.8 451C600 451 557 451 514.2 451C471.3 451 428.7 451 385.8 451C343 451 300 451 257.2 451C214.3 451 171.7 451 128.8 451C86 451 43 451 21.5 451L0 451Z" fill="#ecd79e"></path><path d="M0 361L21.5 362.3C43 363.7 86 366.3 128.8 366.8C171.7 367.3 214.3 365.7 257.2 365.2C300 364.7 343 365.3 385.8 366.7C428.7 368 471.3 370 514.2 371.2C557 372.3 600 372.7 642.8 374.5C685.7 376.3 728.3 379.7 771.2 375.8C814 372 857 361 878.5 355.5L900 350L900 451L878.5 451C857 451 814 451 771.2 451C728.3 451 685.7 451 642.8 451C600 451 557 451 514.2 451C471.3 451 428.7 451 385.8 451C343 451 300 451 257.2 451C214.3 451 171.7 451 128.8 451C86 451 43 451 21.5 451L0 451Z" fill="#d9c387"></path><path d="M0 397L21.5 396.7C43 396.3 86 395.7 128.8 392.3C171.7 389 214.3 383 257.2 379.3C300 375.7 343 374.3 385.8 378.3C428.7 382.3 471.3 391.7 514.2 391.3C557 391 600 381 642.8 377.8C685.7 374.7 728.3 378.3 771.2 383.3C814 388.3 857 394.7 878.5 397.8L900 401L900 451L878.5 451C857 451 814 451 771.2 451C728.3 451 685.7 451 642.8 451C600 451 557 451 514.2 451C471.3 451 428.7 451 385.8 451C343 451 300 451 257.2 451C214.3 451 171.7 451 128.8 451C86 451 43 451 21.5 451L0 451Z" fill="#c6af71"></path><path d="M0 395L21.5 398.7C43 402.3 86 409.7 128.8 411.3C171.7 413 214.3 409 257.2 407.3C300 405.7 343 406.3 385.8 408.3C428.7 410.3 471.3 413.7 514.2 414.2C557 414.7 600 412.3 642.8 413C685.7 413.7 728.3 417.3 771.2 419.3C814 421.3 857 421.7 878.5 421.8L900 422L900 451L878.5 451C857 451 814 451 771.2 451C728.3 451 685.7 451 642.8 451C600 451 557 451 514.2 451C471.3 451 428.7 451 385.8 451C343 451 300 451 257.2 451C214.3 451 171.7 451 128.8 451C86 451 43 451 21.5 451L0 451Z" fill="#b39c5b"></path></svg>